<svg xmlns="http://www.w3.org/2000/svg" width="115" height="55"><g fill="none" stroke="#000" stroke-width="1.5" stroke-linecap="round" stroke-linejoin="round" stroke-miterlimit="10"><path d="M3.972 42.006c11.277 3.539 21.928 4.074 33.094-.4 7.071-2.834 26.178-12.746 24.99-22.787-1.262-10.659-18.22-.537-22.249 2.65-6.946 5.496-17.75 19.106-8.208 27.183 7.722 6.535 22.411 1.982 28.51-4.781 6.458-7.162 1.716-13.428-6.613-14.932-3.418-.616-16.125 1.604-7.122-.591 20.41-4.973 40.229-13.489 59.847-20.843"/><path d="M105.316 14.914c.636-4.341 4.301-6.633 5.712-10.586-3.192.257-9.689.487-12.638-1.149"/></g></svg>