<svg xmlns="http://www.w3.org/2000/svg" width="45" height="55"><g fill="none" stroke="#000" stroke-width="1.5" stroke-linecap="round" stroke-linejoin="round" stroke-miterlimit="10"><path d="M28.101 39.49c-6.007 3.604-11.918-.866-11.522-7.601.453-7.696 10.453-13.737 16.928-8.91 5.841 4.356 9.714 13.374 6.105 20.286-4.107 7.868-14.428 10.104-22.457 8.128-2.249-.553-4.621-1.49-6.609-2.688-1.815-1.094-3.742-2.719-4.987-4.449C.867 37.732 1.26 29.499 6.78 23.536c2.431-2.626 5.545-4.69 8.627-6.476 2.524-1.462 5.146-2.789 7.786-4.03a174.027 174.027 0 0 1 14.801-6.166"/><path d="M37.265 14.47c.517-4.357 4.117-6.749 5.419-10.74-3.185.346-9.673.754-12.664-.801"/></g></svg>