<svg xmlns="http://www.w3.org/2000/svg" width="125" height="30"><g fill="none" stroke="#000" stroke-width="1.5" stroke-linecap="round" stroke-linejoin="round" stroke-miterlimit="10"><path d="M3.184 13.042c1.211.685 10.033-1.267 13.024-1.771 5.31-.896 10.379-2.838 15.618-4.043 3.092-.711 8.959-3.061 11.726-.731 1.611 1.357.979 3.487-.249 4.882-1.803 2.049-4.153 1.902-6.454 2.839-1.626.662-5.729 3.326-2.654 4.979 2.053 1.104 4.831-.098 6.838-.708 4.344-1.321 20.249-8.552 21.157.666.259 2.633-4.513 6.124-1.627 8.446 2.927 2.354 9.086-3.066 11.505-4.466 4.082-2.363 7.929-5.205 12.248-7.14 10.401-4.658 21.498-8.162 32.867-8.952"/><path d="M114.176 14.663c1.459-4.138 5.496-5.683 7.641-9.291-3.183-.361-9.603-1.383-12.182-3.556"/></g></svg>