<svg xmlns="http://www.w3.org/2000/svg" width="120" height="35"><g fill="none" stroke="#000" stroke-width="1.5" stroke-linecap="round" stroke-linejoin="round" stroke-miterlimit="10"><path d="M2.604 11.713C.493 23.5 14.752 38.096 25.349 28.298c4.057-3.752 6.124-12.578 11.736-14.328 5.07-1.582 10.508 3.462 14.03 6.42 3.312 2.783 6.481 7.043 11.264 6.274 5.658-.909 7.922-7.63 12.645-9.502 3.914-1.551 1.654.373 5.418 2.064 8.492 3.815 26.078-8.708 32.912-12.264"/><path d="M113.166 14.662c.126-4.386 3.5-7.089 4.44-11.18-3.141.627-9.566 1.613-12.685.331"/></g></svg>