<svg xmlns="http://www.w3.org/2000/svg" width="135" height="50"><g fill="none" stroke="#000" stroke-width="1.5" stroke-linecap="round" stroke-linejoin="round" stroke-miterlimit="10"><path d="M3.6 26.899c3.694 5.184 9.621 15.633 17.38 12.592 7.644-2.996 11.653-14.865 17.115-20.495 16.084-16.58 32.796 8.781 43.256 19.736 3.001 3.142 10.561 12.011 15.742 8.005 5.405-4.18 3.588-31.23-3.925-32.245-5.168-.698-1.456 6.614 1.57 7.661 10.183 3.521 25.553-10.357 32.861-15.503"/><path d="M128.665 13.957c-.524-4.356 2.411-7.529 2.735-11.714-3.013 1.087-9.222 3.013-12.496 2.207"/></g></svg>