<svg xmlns="http://www.w3.org/2000/svg" width="165" height="20"><g fill="none" stroke="#000" stroke-width="1.5" stroke-linecap="round" stroke-linejoin="round" stroke-miterlimit="10"><path d="M3.165 14.896c5.032-4.683 9.818-8.131 16.326-4.368 4.339 2.509 6.128 8.402 11.707 6.469 5.811-2.012 7.451-11.059 14.487-11.954 7.413-.943 9.598 7.065 14.54 10.635 11.777 8.51 21.401-13.282 33.949-4.688 5.154 3.531 6.443 6.811 13.432 5.677 5.676-.922 10.863-5.221 16.793-4.855 3.715.229 6.166 1.989 10.045 1.689 6.889-.531 14-3.333 20.934-4.28.932-.733-.244-.051-.545.006"/><path d="M153.01 15.653c2.004-3.903 6.213-4.888 8.826-8.174-3.105-.787-9.328-2.668-11.588-5.17"/></g></svg>